<svg width="18" height="18" viewBox="0 0 18 18" fill="none" xmlns="http://www.w3.org/2000/svg">
<path d="M2.86464 3.43722C3.62512 2.61688 4.50914 2.00026 5.4509 1.57618C8.58068 0.16691 12.3897 0.894162 14.7576 3.59891L16.3933 2.19766C16.4842 2.11981 16.63 2.19183 16.6387 2.31382L17.0455 7.80178C17.0505 7.89316 16.9662 7.96544 16.88 7.94357L11.5301 6.69599C11.4082 6.66528 11.3625 6.5131 11.4534 6.43525L13.0858 5.03678C11.5209 3.26501 9.10348 2.67947 6.97548 3.35998C6.17099 3.6158 5.41037 4.04792 4.75614 4.67029C3.85664 5.52531 3.29282 6.6218 3.06947 7.78119C2.95174 8.39985 2.34542 8.79545 1.73261 8.65068C1.14944 8.51429 0.785318 7.93697 0.900709 7.34847C1.17247 5.91684 1.82964 4.55465 2.86464 3.43722V3.43722ZM14.3205 10.4739C14.1032 11.6338 13.5361 12.7331 12.6338 13.5848C11.9764 14.21 11.213 14.6389 10.4145 14.8952C8.28651 15.5757 5.86585 14.9929 4.3042 13.2184L5.93662 11.8199C6.02749 11.742 5.97898 11.5866 5.85993 11.5591L0.507204 10.3083C0.417805 10.2892 0.333426 10.3615 0.34169 10.4501L0.745703 15.9348C0.75718 16.0601 0.900279 16.1288 0.99115 16.051L2.62681 14.6497C4.99149 17.3573 8.80329 18.0878 11.9335 16.6725C12.8753 16.2484 13.7565 15.6285 14.5198 14.8114C15.5576 13.6972 16.2147 12.335 16.4865 10.9034C16.5991 10.3117 16.2378 9.7376 15.6546 9.60121C15.0446 9.45969 14.4383 9.85529 14.3205 10.4739V10.4739Z" fill="#757575" stroke="white" stroke-width="0.3"/>
</svg>
